<?xml version="1.0" encoding="utf-8"?>
<svg id="svg19" viewBox="0 0 1024 1024" version="1.1" stroke-miterlimit="1.4142" stroke-linejoin="round" fill-rule="evenodd" clip-rule="evenodd" xmlns="http://www.w3.org/2000/svg" xmlns:bx="https://boxy-svg.com">
  <defs id="defs15">
    <linearGradient gradientUnits="userSpaceOnUse" gradientTransform="matrix(8.959998, 0, 0, 8.960002, 0.000363, 0.001539)" y2="-7.6294e-6" y1="150" x2="150" x1="18.23" id="a">
      <stop id="stop10" offset="0" stop-color="#0082c9"/>
      <stop id="stop12" offset="1" stop-color="#1cafff"/>
    </linearGradient>
  </defs>
  <rect id="rect17" fill-rule="evenodd" fill="url(#a)" height="1024" width="1024" style="" bx:origin="0 0"/>
  <text style="fill: rgb(255, 255, 255); font-family: &quot;Apple Braille&quot;; font-size: 400px; font-weight: 700; white-space: pre;" x="234.265" y="792.554">Kit</text>
  <path id="path1052" d="M 512.426 230.436 C 454.846 230.436 406.041 269.472 390.918 322.361 C 377.769 294.307 349.284 274.654 316.472 274.654 C 271.343 274.654 234.25 311.747 234.25 356.873 C 234.25 401.998 271.343 439.107 316.472 439.107 C 349.284 439.107 377.769 419.443 390.918 391.389 C 406.041 444.278 454.846 483.326 512.426 483.326 C 569.58 483.326 618.134 444.867 633.647 392.571 C 647.032 419.995 675.166 439.107 707.514 439.107 C 752.64 439.107 789.75 401.998 789.75 356.873 C 789.75 311.747 752.64 274.654 707.514 274.654 C 675.166 274.654 647.032 293.76 633.647 321.175 C 618.134 268.883 569.58 230.436 512.426 230.436 Z M 512.426 278.702 C 555.889 278.702 590.614 313.406 590.614 356.873 C 590.614 400.34 555.889 435.06 512.426 435.06 C 468.959 435.06 434.252 400.34 434.252 356.873 C 434.252 313.406 468.959 278.702 512.426 278.702 Z M 316.472 322.92 C 335.514 322.92 350.442 337.832 350.442 356.873 C 350.442 375.919 335.514 390.846 316.472 390.846 C 297.426 390.846 282.516 375.919 282.516 356.873 C 282.516 337.832 297.426 322.92 316.472 322.92 Z M 707.514 322.92 C 726.557 322.92 741.488 337.832 741.488 356.873 C 741.488 375.919 726.557 390.846 707.514 390.846 C 688.474 390.846 673.558 375.919 673.558 356.873 C 673.558 337.832 688.474 322.92 707.514 322.92 Z" style="color: rgb(0, 0, 0); font: medium sans-serif; text-indent: 0px; text-align: start; text-decoration: none solid rgb(0, 0, 0); letter-spacing: normal; word-spacing: normal; text-transform: none; writing-mode: lr-tb; direction: ltr; baseline-shift: baseline; text-anchor: start; white-space: normal; clip-rule: nonzero; display: inline; overflow: visible; visibility: visible; opacity: 1; isolation: auto; mix-blend-mode: normal; color-interpolation: srgb; color-interpolation-filters: linearrgb; fill-opacity: 1; fill-rule: nonzero; stroke: none; stroke-width: 5.5659; stroke-linecap: butt; stroke-linejoin: miter; stroke-miterlimit: 10; stroke-dasharray: none; stroke-dashoffset: 0; stroke-opacity: 1; color-rendering: auto; image-rendering: auto; shape-rendering: auto; text-rendering: auto; fill: rgb(255, 255, 255);"/>
</svg>