<?xml version="1.0" encoding="utf-8"?>
<svg id="svg19" viewBox="0 0 1024 1024" version="1.1" stroke-miterlimit="1.4142" stroke-linejoin="round" fill-rule="evenodd" clip-rule="evenodd" xmlns="http://www.w3.org/2000/svg" xmlns:bx="https://boxy-svg.com">
  <defs id="defs15">
    <linearGradient gradientUnits="userSpaceOnUse" gradientTransform="matrix(9.199624, 0, 0, 9.215834, 0.000368, 0.001092)" y2="-7.6294e-6" y1="150" x2="150" x1="18.23" id="a">
      <stop id="stop10" offset="0" stop-color="#0082c9"/>
      <stop id="stop12" offset="1" stop-color="#1cafff"/>
    </linearGradient>
  </defs>
  <rect id="rect17" fill-rule="evenodd" fill="url(#a)" height="1053.239" width="1051.386" style="" bx:origin="0 0"/>
  <path d="M 337.045 212.026 C 337.045 281.009 392.992 337.026 462.028 337.026 C 462.028 268.034 406.073 212.026 337.045 212.026 Z M 530.972 262.009 C 503.823 289.158 487.028 326.653 487.028 368.063 L 487.028 382.591 C 464.935 369.703 439.435 362.009 411.992 362.009 C 329.185 362.009 262 429.166 262 511.998 L 262.057 562.006 C 262.053 700.054 373.983 811.973 512.028 811.973 C 650.09 811.973 762 700.054 762 562.006 L 762 511.998 C 762 429.166 694.845 362.009 612.017 362.009 C 584.61 362.009 559.127 369.694 537.02 382.563 L 537.02 368.063 C 537.02 341.349 547.427 316.256 566.315 297.358 L 530.972 262.009 Z" style="fill: rgb(255, 255, 255);"/>
</svg>