<?xml version="1.0" encoding="utf-8"?>
<svg id="svg19" viewBox="0 0 1024 1024" version="1.1" stroke-miterlimit="1.4142" stroke-linejoin="round" fill-rule="evenodd" clip-rule="evenodd" xmlns="http://www.w3.org/2000/svg" xmlns:bx="https://boxy-svg.com">
  <defs id="defs15">
    <linearGradient gradientUnits="userSpaceOnUse" gradientTransform="matrix(9.199624, 0, 0, 9.215834, 0.000368, 0.001092)" y2="-7.6294e-6" y1="150" x2="150" x1="18.23" id="a">
      <stop id="stop10" offset="0" stop-color="#0082c9"/>
      <stop id="stop12" offset="1" stop-color="#1cafff"/>
    </linearGradient>
  </defs>
  <rect id="rect17" fill-rule="evenodd" fill="url(#a)" height="1053.239" width="1051.386" style="" bx:origin="0 0"/>
  <path d="M 652.419 453.389 C 650.281 455.048 612.546 476.31 612.546 523.59 C 612.546 578.276 660.562 597.622 662 598.101 C 661.779 599.281 654.372 624.597 636.683 650.392 C 620.911 673.092 604.439 695.755 579.381 695.755 C 554.322 695.755 547.874 681.199 518.946 681.199 C 490.755 681.199 480.732 696.234 457.811 696.234 C 434.89 696.234 418.897 675.229 400.508 649.434 C 379.209 619.143 362 572.085 362 527.422 C 362 455.785 408.579 417.792 454.421 417.792 C 478.779 417.792 499.084 433.785 514.377 433.785 C 528.932 433.785 551.632 416.834 579.344 416.834 C 589.846 416.834 627.581 417.792 652.419 453.389 Z M 566.188 386.506 C 577.649 372.908 585.756 354.04 585.756 335.173 C 585.756 332.557 585.535 329.903 585.056 327.766 C 566.409 328.466 544.225 340.185 530.849 355.699 C 520.346 367.638 510.544 386.506 510.544 405.631 C 510.544 408.505 511.023 411.38 511.244 412.301 C 512.423 412.522 514.34 412.78 516.256 412.78 C 532.986 412.78 554.028 401.578 566.188 386.506 Z" style="stroke: rgb(255, 255, 255); fill: rgb(255, 255, 255);"/>
</svg>